<?xml version="1.0" encoding="iso-8859-1"?>
<!-- Generator: Adobe Illustrator 18.0.0, SVG Export Plug-In . SVG Version: 6.00 Build 0)  -->
<!DOCTYPE svg PUBLIC "-//W3C//DTD SVG 1.1//EN" "http://www.w3.org/Graphics/SVG/1.1/DTD/svg11.dtd">
<svg version="1.1" id="Layer_1" xmlns="http://www.w3.org/2000/svg" xmlns:xlink="http://www.w3.org/1999/xlink" x="0px" y="0px"
	 viewBox="0 0 28 24" style="enable-background:new 0 0 28 24;" xml:space="preserve">
<linearGradient id="SVGID_1_" gradientUnits="userSpaceOnUse" x1="2" y1="10.1653" x2="15.3185" y2="10.1653">
	<stop  offset="0" style="stop-color:#21F990"/>
	<stop  offset="1" style="stop-color:#009F1B"/>
</linearGradient>
<path style="fill:url(#SVGID_1_);" d="M15.319,15.878c-1.881,1.944-4.15,2.916-6.808,2.916c-1.904,0-3.466-0.597-4.684-1.791
	S2,14.276,2,12.403c0-1.865,0.44-3.638,1.321-5.32s2.033-3.027,3.458-4.035s2.823-1.512,4.196-1.512
	c1.151,0,2.089,0.345,2.815,1.035c0.726,0.69,1.089,1.587,1.089,2.69c0,1.436-0.438,2.68-1.315,3.731s-1.902,1.577-3.077,1.577
	c-0.619,0-1.127-0.159-1.523-0.476S8.368,9.368,8.368,8.868c0-0.428,0.171-0.825,0.512-1.19C9.133,8.146,9.483,8.38,9.927,8.38
	c0.635,0,1.224-0.397,1.767-1.19c0.544-0.793,0.815-1.662,0.815-2.607c0-0.659-0.153-1.182-0.458-1.571
	c-0.305-0.389-0.712-0.583-1.22-0.583c-0.738,0-1.525,0.46-2.363,1.381S6.933,5.912,6.374,7.356s-0.839,2.817-0.839,4.118
	c0,1.658,0.47,3.019,1.41,4.082s2.136,1.595,3.589,1.595c0.92,0,1.75-0.213,2.488-0.64c0.738-0.426,1.504-1.094,2.297-2.003V15.878z
	"/>
<linearGradient id="SVGID_2_" gradientUnits="userSpaceOnUse" x1="10.9757" y1="13.7513" x2="25.2346" y2="13.7513">
	<stop  offset="0" style="stop-color:#21F990"/>
	<stop  offset="1" style="stop-color:#009F1B"/>
</linearGradient>
<path style="fill:url(#SVGID_2_);" d="M24.723,12.299l-0.214,2.083c-0.127,0.175-0.391,0.343-0.788,0.506
	c-0.397,0.163-1.097,0.375-2.099,0.637c-0.188,2.079-0.881,3.755-2.079,5.029s-2.706,1.91-4.523,1.91
	c-1.276,0-2.269-0.278-2.98-0.833c-0.71-0.555-1.065-1.103-1.065-1.642c0-0.254,0.276-0.627,0.827-1.119s0.958-0.738,1.22-0.738
	c0.198,0,0.321,0.073,0.369,0.22s0.073,0.516,0.077,1.107c0.004,0.591,0.155,1.087,0.452,1.488c0.298,0.401,0.712,0.601,1.244,0.601
	c1.603,0,2.626-1.658,3.071-4.975c-0.73,0.159-1.559,0.5-2.488,1.024l0.512-1.607c0.674-0.579,1.393-1.004,2.152-1.274
	c0.121-1.278,0.337-2.293,0.651-3.047c0.313-0.754,0.825-1.492,1.539-2.214c0.944-0.119,1.587-0.186,1.928-0.202
	c-0.27,0.524-0.456,1.032-0.559,1.523c-0.103,0.492-0.171,1.394-0.202,2.703C22.808,13.137,23.794,12.744,24.723,12.299z
	 M25.235,5.039c-0.19,1.071-0.488,1.847-0.893,2.327s-1.17,0.72-2.297,0.72l-3.713-0.095c-1.095,0-1.982,0.212-2.66,0.637
	c-0.678,0.425-1.018,1.018-1.018,1.779c0,0.714,0.432,1.274,1.297,1.678c0.294,0.135,0.44,0.258,0.44,0.369
	c0,0.222-0.161,0.498-0.482,0.827c-0.321,0.329-0.692,0.573-1.113,0.732c-1.071-0.294-1.607-0.984-1.607-2.071
	c0-0.762,0.302-1.716,0.905-2.862s1.412-2.083,2.428-2.809s2.142-1.089,3.38-1.089c0.103,0,0.669,0.042,1.696,0.125
	c1.028,0.083,1.648,0.125,1.863,0.125c0.643,0,1.032-0.131,1.166-0.393H25.235z"/>
</svg>
